<?xml version="1.0" encoding="UTF-8"?>
<!DOCTYPE svg PUBLIC "-//W3C//DTD SVG 1.1//EN" "http://www.w3.org/Graphics/SVG/1.1/DTD/svg11.dtd">
<svg version="1.1" xmlns="http://www.w3.org/2000/svg" xmlns:xlink="http://www.w3.org/1999/xlink" x="0" y="0" width="539" height="1015" viewBox="0, 0, 539, 1015">
  <g id="Layer_1">
    <path d="M472.43,1000.125 C517.055,956.662 531.93,856.912 531.188,773.99 C530.74,724.808 512.288,693.14 492.751,679.805 C449.68,650.412 412.055,638.162 367.01,624.043 C366.849,623.581 353.43,606.081 353.43,606.081 L237.93,602.294 L221.207,617.771 C221.207,617.771 132.034,622.867 67.522,672.658 C55.342,682.066 33.579,699.818 24.521,745.087 C10.934,850.332 24.822,946.134 42.889,979.853 C51.373,995.694 65.121,1002.799 80.731,1002.897 L338.842,1002.897 L369.39,1002.26 L424.893,1012.011 L472.43,1000.125" fill="#B4AB85"/>
    <path d="M426.125,823.83 C366.534,852.859 292.908,868.175 212.198,870.401 L153.979,959.462 L109.592,1002.897 L338.842,1002.897 L369.39,1002.26 L410.578,905.114 L426.125,823.83" fill="#A39A72"/>
    <path d="M28.021,769.587 C37.079,724.318 58.842,706.566 71.022,697.158 C135.534,647.367 224.707,642.271 224.707,642.271 L241.43,626.794 L356.93,630.581 C356.93,630.581 370.349,648.081 370.51,648.543 C415.555,662.662 453.18,674.912 496.251,704.305 C510.531,714.049 524.195,733.635 530.705,762.65 C527.772,719.936 510.734,692.083 492.751,679.805 C449.68,650.412 412.055,638.162 367.01,624.043 C366.849,623.581 353.43,606.081 353.43,606.081 L237.93,602.294 L221.207,617.771 C221.207,617.771 132.034,622.867 67.522,672.658 C55.342,682.066 33.579,699.818 24.521,745.087 C15.722,813.246 18.48,877.324 26.397,923.265 C21.399,880.25 20.692,826.343 28.021,769.587" fill="#E2DAB4"/>
    <path d="M172.305,936.096 C172.305,936.096 191.555,949.662 209.349,951.125 C230.93,952.896 241.647,946.89 241.647,946.89 L259.294,948.598 L263.683,897.631 L246.701,894.593 L212.191,873.495 L172.305,936.096" fill="#F8D2B5"/>
    <path d="M293.342,822.815 L219.016,649.495 L293.349,674.135 L367.675,649.495 L293.342,822.815" fill="#FFFFFE"/>
    <path d="M293.342,822.815 L219.016,649.495 L293.349,674.135 L367.675,649.495 L293.342,822.815 z" fill-opacity="0" stroke="#1A1919" stroke-width="8.4" stroke-linecap="round" stroke-linejoin="round"/>
    <path d="M353.43,606.081 C353.43,606.081 377.349,635.53 382.011,664.118 L344.673,676.956 L321.923,629.706 L353.43,606.081" fill="#FFFFFE"/>
    <path d="M396.158,1007.846 C341.852,1000.335 259.287,966.182 259.287,966.182 C259.287,966.182 260.68,912.037 267.862,895.986 C267.862,895.986 424.445,907.515 440.832,905.695" fill="#B4AB85"/>
    <g>
      <path d="M353.43,606.081 C353.43,606.081 366.849,623.581 367.01,624.043 C412.055,638.162 449.68,650.412 492.751,679.805 C512.288,693.14 530.74,724.808 531.188,773.99 C531.93,856.912 516.824,973.294 472.43,1000.125 C460.236,1007.489 437.283,1013.537 396.158,1007.846 C341.852,1000.335 259.287,966.182 259.287,966.182 C259.287,966.182 260.68,912.037 267.862,895.986 C267.862,895.986 424.445,907.515 440.832,905.695 M410.578,900.956 C410.578,900.956 431.522,801.423 433.342,780.787 M263.683,897.631 L246.701,894.593 L212.191,873.495 M172.305,936.096 C172.305,936.096 191.555,949.662 209.349,951.125 C230.93,952.896 241.647,946.89 241.647,946.89 L259.294,948.598 M264.054,571.83 C264.054,571.83 264.362,593.537 257.831,604.359 M322.63,571.83 C322.63,571.83 322.329,593.537 328.853,604.359 M47.691,915.852 C52.787,903.966 74.613,879.368 83.482,867.013 C100.744,842.968 125.923,810.46 150.262,776.916 C164.423,757.386 172.494,758.52 179.277,762.475 L215.271,806.414 C215.271,806.414 240.499,824.145 229.18,845.537 C221.305,860.412 177.555,927.787 154.924,958.209 C121.156,1003.611 64.68,1020.537 42.889,979.853 C24.822,946.134 10.934,850.332 24.521,745.087 C33.579,699.818 55.342,682.066 67.522,672.658 C132.034,622.867 221.207,617.771 221.207,617.771 C221.207,617.771 239.05,596.379 241.36,594.741 C249.375,589.092 260.939,590.499 260.939,590.499" fill-opacity="0" stroke="#1A1919" stroke-width="9.8" stroke-linecap="round" stroke-linejoin="round"/>
      <path d="M488.649,295.148 C503.251,161.504 462.322,107.625 428.547,83.888 C384.16,52.71 350.112,49.763 350.112,49.763 C356.111,-1.855 211.589,-0.749 127.722,45.171 C61.117,81.648 55.524,122.829 55.524,122.829 C-30.891,202.433 30.639,347.333 30.639,347.333" fill="#A9AAA9"/>
      <path d="M61.88,147.994 C61.88,147.994 67.466,106.799 134.071,70.336 C217.938,24.416 362.46,23.31 356.461,74.935 C356.461,74.935 390.509,77.875 434.903,109.06 C453.243,121.933 473.851,145.901 486.598,186.375 C475.489,130.291 450.401,99.239 428.547,83.888 C384.16,52.71 350.112,49.763 350.112,49.763 C356.111,-1.855 211.589,-0.749 127.722,45.171 C61.117,81.648 55.524,122.829 55.524,122.829 C-9.513,182.735 8.897,276.598 22.386,322.833 C11.326,271.397 6.937,198.597 61.88,147.994" fill="#DBDCDB"/>
      <path d="M488.649,295.148 C503.251,161.504 462.322,107.625 428.547,83.888 C384.16,52.71 350.112,49.763 350.112,49.763 C356.111,-1.855 211.589,-0.749 127.722,45.171 C61.117,81.648 55.524,122.829 55.524,122.829 C-30.891,202.433 30.639,347.333 30.639,347.333" fill-opacity="0" stroke="#1A1919" stroke-width="9.8" stroke-linecap="round" stroke-linejoin="round"/>
      <path d="M61.397,354.767 C61.397,354.767 15.274,323.554 6.013,381.892 C-4.606,448.903 63.091,516.943 101.094,517.188" fill="#F8D2B5"/>
      <path d="M61.397,354.767 C61.397,354.767 15.274,323.554 6.013,381.892 C-4.606,448.903 63.091,516.943 101.094,517.188" fill-opacity="0" stroke="#1A1919" stroke-width="9.8" stroke-linecap="round" stroke-linejoin="round"/>
    </g>
    <path d="M36.232,440.874 C47.285,460.887 65.1,471.639 76.013,464.87 C86.94,458.094 86.821,436.373 75.754,416.353 C64.715,396.333 46.9,385.595 35.987,392.364 C25.06,399.126 25.186,420.833 36.232,440.874" fill="#DB9D88"/>
    <g>
      <path d="M28.469,379.449 C28.469,379.449 49.637,367.087 71.281,403.13" fill-opacity="0" stroke="#1A1919" stroke-width="9.8" stroke-linecap="round" stroke-linejoin="round"/>
      <path d="M458.801,308.98 C458.801,308.98 496.608,268.1 518.896,322.805 C544.481,385.651 494.025,467.299 457.065,476.189" fill="#F8D2B5"/>
      <path d="M458.801,308.98 C458.801,308.98 496.608,268.1 518.896,322.805 C544.481,385.651 494.025,467.299 457.065,476.189" fill-opacity="0" stroke="#1A1919" stroke-width="9.8" stroke-linecap="round" stroke-linejoin="round"/>
    </g>
    <path d="M502.88,387.107 C496.678,409.115 481.768,423.633 469.602,419.531 C457.422,415.415 452.585,394.24 458.801,372.225 C465.003,350.217 479.927,335.713 492.086,339.815 C504.266,343.924 509.082,365.092 502.88,387.107" fill="#DB9D88"/>
    <path d="M496.475,325.521 C496.475,325.521 473.039,318.304 460.159,358.337" fill-opacity="0" stroke="#1A1919" stroke-width="9.8" stroke-linecap="round" stroke-linejoin="round"/>
    <path d="M365.008,139.552 C423.563,168.203 448.301,191.1 463.239,279.979 C466.739,326.193 478.254,427.189 465.122,494.48 C454.272,550.109 353.283,602.042 292.887,609.007 C232.498,615.958 122.339,588.35 99.113,536.648 C71.022,474.096 59.276,373.128 52.178,327.327 C46.522,237.398 70.819,201.068 108.836,163.884 C146.853,126.693 229.544,132.72 267.232,130.095 C304.92,127.477 332.647,120.841 348.565,101.738 C348.565,101.738 350.196,130.907 365.008,139.552" fill="#F8D2B5"/>
    <path d="M365.008,139.552 C423.563,168.203 448.301,191.1 463.239,279.979 C466.739,326.193 478.254,427.189 465.122,494.48 C454.272,550.109 353.283,602.042 292.887,609.007 C232.498,615.958 122.339,588.35 99.113,536.648 C71.022,474.096 59.276,373.128 52.178,327.327 C46.522,237.398 70.819,201.068 108.836,163.884 C146.853,126.693 229.544,132.72 267.232,130.095 C304.92,127.477 332.647,120.841 348.565,101.738 C348.565,101.738 350.196,130.907 365.008,139.552 z" fill-opacity="0" stroke="#1A1919" stroke-width="9.8" stroke-linecap="round" stroke-linejoin="round"/>
    <path d="M84.455,454.286 C85.61,464.345 102.606,470.638 122.416,468.356 C142.219,466.081 157.36,456.078 156.198,446.019 C155.043,435.974 138.033,429.695 118.23,431.97 C98.42,434.259 83.293,444.234 84.455,454.286" fill="#EB9294"/>
    <path d="M388.696,419.23 C389.851,429.296 406.854,435.589 426.671,433.307 C446.474,431.032 461.601,421.022 460.446,410.97 C459.291,400.925 442.288,394.646 422.478,396.928 C402.661,399.21 387.541,409.185 388.696,419.23" fill="#EB9294"/>
    <path d="M213.423,373.611 C216.146,397.222 204.211,417.998 186.76,420.014 C169.295,422.023 152.936,404.509 150.213,380.898 C147.49,357.273 159.439,336.518 176.904,334.502 C194.362,332.486 210.707,350 213.423,373.611" fill="#FFFFFE"/>
    <path d="M148.624,373.002 C148.624,373.002 148.988,346.514 171.031,336.637 C196.791,325.073 206.969,353.073 206.969,353.073 C206.969,353.073 191.758,343.623 175.686,350.042 C160.524,356.104 148.624,373.002 148.624,373.002" fill="#D8E9F1"/>
    <path d="M209.657,386.785 C211.484,402.591 204.89,416.36 194.943,417.501 C185.01,418.642 175.455,406.735 173.635,390.943 C171.815,375.123 178.409,361.389 188.342,360.241 C198.296,359.1 207.837,370.986 209.657,386.785" fill="#1A1919"/>
    <path d="M206.024,372.239 C206.451,375.963 204.323,379.267 201.285,379.617 C198.233,379.967 195.412,377.23 194.985,373.513 C194.558,369.789 196.686,366.471 199.731,366.121 C202.776,365.771 205.597,368.515 206.024,372.239" fill="#FFFFFE"/>
    <path d="M206.969,353.073 C206.969,353.073 196.791,325.073 171.031,336.637 C148.988,346.514 148.624,373.002 148.624,373.002" fill-opacity="0" stroke="#1A1919" stroke-width="9.8" stroke-linecap="round" stroke-linejoin="round"/>
    <path d="M312.088,362.25 C314.811,385.861 331.163,403.375 348.614,401.359 C366.079,399.35 378.021,378.574 375.298,354.963 C372.582,331.345 356.23,313.845 338.758,315.854 C321.307,317.87 309.365,338.625 312.088,362.25" fill="#FFFFFE"/>
    <path d="M375.053,346.913 C375.053,346.913 368.676,321.209 344.967,316.596 C317.247,311.199 313.698,340.767 313.698,340.767 C313.698,340.767 326.368,328.125 343.483,330.715 C359.632,333.165 375.053,346.913 375.053,346.913" fill="#D8E9F1"/>
    <path d="M318.752,374.22 C320.579,390.019 330.12,401.933 340.074,400.778 C350.007,399.637 356.601,385.875 354.781,370.069 C352.961,354.263 343.413,342.384 333.48,343.525 C323.526,344.673 316.932,358.414 318.752,374.22" fill="#1A1919"/>
    <path d="M339.948,356.811 C340.375,360.528 343.196,363.272 346.241,362.915 C349.279,362.558 351.414,359.261 350.987,355.544 C350.56,351.813 347.732,349.069 344.687,349.426 C341.649,349.776 339.521,353.087 339.948,356.811" fill="#FFFFFE"/>
    <path d="M313.698,340.767 C313.698,340.767 317.247,311.199 344.967,316.596 C368.676,321.209 375.053,346.913 375.053,346.913" fill-opacity="0" stroke="#1A1919" stroke-width="9.8" stroke-linecap="round" stroke-linejoin="round"/>
    <path d="M98.952,262.346 C100.527,251.587 105.084,234.612 111.23,231.203 C138.005,216.412 189.217,209.307 196.448,211.932 C202.916,214.277 138.936,232.596 106.162,263.298 C103.25,266.021 98.105,268.226 98.952,262.346" fill="#B4B5B4"/>
    <path d="M98.952,262.346 C100.527,251.587 105.084,234.612 111.23,231.203 C138.005,216.412 189.217,209.307 196.448,211.932 C202.916,214.277 138.936,232.596 106.162,263.298 C103.25,266.021 98.105,268.226 98.952,262.346 z" fill-opacity="0" stroke="#1A1919" stroke-width="7"/>
    <path d="M402.668,227.36 C398.692,217.231 390.39,201.747 383.642,199.822 C354.2,191.499 302.701,196.231 296.261,200.431 C290.493,204.183 356.965,207.48 395.871,229.915 C399.329,231.91 404.845,232.883 402.668,227.36" fill="#B4B5B4"/>
    <path d="M402.668,227.36 C398.692,217.231 390.39,201.747 383.642,199.822 C354.2,191.499 302.701,196.231 296.261,200.431 C290.493,204.183 356.965,207.48 395.871,229.915 C399.329,231.91 404.845,232.883 402.668,227.36 z" fill-opacity="0" stroke="#1A1919" stroke-width="7"/>
    <path d="M201.068,462.455 C201.068,462.455 180.509,490.91 176.253,539.966 M348.726,445.438 C348.726,445.438 375.389,468.615 390.677,515.739" fill-opacity="0" stroke="#1A1919" stroke-width="8.4" stroke-linecap="round" stroke-linejoin="round"/>
    <path d="M251.615,406.7 C252.616,415.373 246.337,423.29 237.664,424.291 L102.333,439.873 C93.66,440.874 85.743,434.595 84.742,425.922 L76.209,351.813 C75.208,343.14 81.487,335.223 90.16,334.229 L225.491,318.633 C234.164,317.639 242.081,323.911 243.082,332.584 L251.615,406.7 z M295.106,448.462 C297.038,445.704 298.053,442.666 297.689,439.537 C296.646,430.444 284.991,424.305 271.663,425.845 C258.328,427.378 248.367,436.002 249.417,445.095 C249.781,448.224 251.461,450.954 253.974,453.208" fill-opacity="0" stroke="#1A1919" stroke-width="9.8" stroke-linecap="round" stroke-linejoin="round"/>
    <path d="M108.241,370.902 L127.155,380.24 M126.525,394.702 L109.256,404.754" fill-opacity="0" stroke="#1A1919" stroke-width="8.4" stroke-linecap="round" stroke-linejoin="round"/>
    <path d="M282.513,403.137 C283.514,411.817 291.431,418.089 300.104,417.095 L435.428,401.506 C444.101,400.505 450.38,392.595 449.379,383.915 L440.846,309.806 C439.845,301.133 431.928,294.861 423.255,295.855 L287.931,311.444 C279.258,312.438 272.979,320.355 273.98,329.028 L282.513,403.137 z" fill-opacity="0" stroke="#1A1919" stroke-width="9.8" stroke-linecap="round" stroke-linejoin="round"/>
    <path d="M408.576,338.499 L392.294,351.883 M396.193,365.827 L415.282,371.679" fill-opacity="0" stroke="#1A1919" stroke-width="8.4" stroke-linecap="round" stroke-linejoin="round"/>
    <path d="M366.772,623.721 C366.772,623.721 379.792,645.442 383.18,666.379 C383.18,666.379 345.996,672.938 334.397,690.004 M248.08,376.04 C248.08,376.04 257.187,366.016 278.901,371.784 M300.09,520.975 C295.358,518.413 289.044,517.209 282.275,517.993 C275.506,518.77 269.633,521.381 265.594,524.944" fill-opacity="0" stroke="#1A1919" stroke-width="9.8" stroke-linecap="round" stroke-linejoin="round"/>
    <path d="M333.585,709.009 C333.585,713.244 330.12,716.702 325.892,716.702 L225.008,741.258 C220.766,741.258 217.308,737.8 217.308,733.558 L217.308,552.048 C217.308,547.813 220.766,544.348 225.008,544.348 L325.892,544.348 C330.12,544.348 333.585,547.813 333.585,552.048 L333.585,709.009" fill="#F2F1F0"/>
    <path d="M217.728,685.244 L217.728,644.672 L334.173,577.661 L334.432,628.376 L217.728,685.244" fill="#CBCCCB"/>
    <path d="M333.585,709.009 C333.585,713.244 330.12,716.702 325.892,716.702 L225.008,741.258 C220.766,741.258 217.308,737.8 217.308,733.558 L217.308,552.048 C217.308,547.813 220.766,544.348 225.008,544.348 L325.892,544.348 C330.12,544.348 333.585,547.813 333.585,552.048 L333.585,709.009 z M109.592,768.537 L119.014,817.229" fill-opacity="0" stroke="#1A1919" stroke-width="9.8" stroke-linecap="round" stroke-linejoin="round"/>
    <path d="M174.3,785.407 C174.3,785.407 173.453,793.044 173.74,794.458 C174.027,795.865 191.849,826.714 193.543,829.535 C195.251,832.363 210.511,842.555 213.346,836.325 C216.181,830.095 211.932,817.082 211.932,817.082 L184.205,785.68 L174.3,785.407" fill="#F8D2B5"/>
    <path d="M174.3,783.706 C184.485,770.973 186.473,756.546 186.473,756.546 C186.473,756.546 184.205,700.525 186.473,693.168 C188.734,685.811 196.658,660.891 197.225,653.562 C198.352,638.848 197.498,626.115 194.957,618.471 C193.004,612.605 208.103,612.962 211.925,621.019 C215.747,629.09 217.308,632.625 217.308,651.294 L217.308,681.009 C217.308,681.009 264.264,644.231 271.341,638.568 C278.411,632.912 328.769,598.962 338.394,596.134 C348.012,593.299 357.637,601.503 349.146,613.676 C340.662,625.842 280.119,669.97 280.119,669.97 C280.119,669.97 330.645,638.519 334.859,636.657 C347.585,630.994 360.633,647.731 345.604,659.008 C341.089,662.396 291.998,694.015 291.998,694.015 C291.998,694.015 332.227,671.853 336.553,669.333 C349.286,661.899 358.407,676.97 345.891,689.493 C338.485,696.885 307.062,718.767 307.062,718.767 C307.062,718.767 328.321,706.426 333.585,703.913 C347.375,697.34 355.019,709.009 341.649,723.016 C329.812,735.42 320.292,743.813 311.521,750.883 C305.515,755.72 291.515,780.794 244.16,794.36 C239.162,795.795 235.249,800.625 235.249,800.625 L210.231,838.026" fill="#F8D2B5"/>
    <path d="M174.3,783.706 C184.485,770.973 186.473,756.546 186.473,756.546 C186.473,756.546 184.205,700.525 186.473,693.168 C188.734,685.811 196.658,660.891 197.225,653.562 C198.352,638.848 197.498,626.115 194.957,618.471 C193.004,612.605 208.103,612.962 211.925,621.019 C215.747,629.09 217.308,632.625 217.308,651.294 L217.308,681.009 C217.308,681.009 264.264,644.231 271.341,638.568 C278.411,632.912 328.769,598.962 338.394,596.134 C348.012,593.299 357.637,601.503 349.146,613.676 C340.662,625.842 280.119,669.97 280.119,669.97 C280.119,669.97 330.645,638.519 334.859,636.657 C347.585,630.994 360.633,647.731 345.604,659.008 C341.089,662.396 291.998,694.015 291.998,694.015 C291.998,694.015 332.227,671.853 336.553,669.333 C349.286,661.899 358.407,676.97 345.891,689.493 C338.485,696.885 307.062,718.767 307.062,718.767 C307.062,718.767 328.321,706.426 333.585,703.913 C347.375,697.34 355.019,709.009 341.649,723.016 C329.812,735.42 320.292,743.813 311.521,750.883 C305.515,755.72 291.515,780.794 244.16,794.36 C239.162,795.795 235.249,800.625 235.249,800.625 L210.231,838.026" fill-opacity="0" stroke="#1A1919" stroke-width="9.8" stroke-linecap="round" stroke-linejoin="round"/>
    <path d="M174.3,776.349 C174.3,776.349 171.64,785.666 174.3,795.592 C178.752,812.126 198.919,844.816 213.626,843.122" fill-opacity="0" stroke="#1A1919" stroke-width="8.4" stroke-linecap="round" stroke-linejoin="round"/>
    <path d="M254.513,570.864 C254.513,576.093 250.292,580.328 245.063,580.328 C239.841,580.328 235.606,576.093 235.606,570.864 C235.606,565.642 239.841,561.414 245.063,561.414 C250.292,561.414 254.513,565.642 254.513,570.864" fill="#F2F1F0"/>
    <path d="M254.513,570.864 C254.513,576.093 250.292,580.328 245.063,580.328 C239.841,580.328 235.606,576.093 235.606,570.864 C235.606,565.642 239.841,561.414 245.063,561.414 C250.292,561.414 254.513,565.642 254.513,570.864 z" fill-opacity="0" stroke="#1A1919" stroke-width="7" stroke-linecap="round" stroke-linejoin="round"/>
  </g>
</svg>
